<?xml version="1.0" encoding="UTF-8"?>
<svg id="Capa_2" data-name="Capa 2" xmlns="http://www.w3.org/2000/svg" xmlns:xlink="http://www.w3.org/1999/xlink" viewBox="0 0 120 108.75">
  <defs>
    <style>
      .cls-1 {
        fill: #000;
      }

      .cls-1, .cls-2 {
        stroke-width: 0px;
      }

      .cls-2 {
        fill: none;
      }

      .cls-3 {
        clip-path: url(#clippath);
      }
    </style>
    <clipPath id="clippath">
      <rect class="cls-2" width="120" height="108.75"/>
    </clipPath>
  </defs>
  <g id="Capa_1-2" data-name="Capa 1">
    <g class="cls-3">
      <path class="cls-1" d="M19.25,101.36l.12-35.37c0-.97.2-1.9.59-2.78s.94-1.66,1.65-2.31l33.74-31.05c.32-.29.66-.55,1.02-.78.36-.23.75-.42,1.15-.58.4-.16.81-.28,1.24-.36.42-.08.85-.12,1.28-.12.43,0,.86.04,1.28.12.42.08.84.2,1.24.35.4.16.78.35,1.15.57.37.23.71.48,1.03.78l33.69,30.73c.72.66,1.28,1.44,1.68,2.33.39.9.59,1.83.59,2.81v35.91c0,.46-.04.91-.13,1.35-.09.45-.22.88-.39,1.3-.17.42-.39.82-.64,1.2-.25.38-.54.73-.86,1.05-.32.32-.67.61-1.05.87-.38.25-.78.47-1.2.64-.42.18-.85.31-1.3.4-.45.09-.9.14-1.35.14l-16.87.09c-.46,0-.91-.04-1.36-.13-.45-.09-.89-.22-1.31-.39-.42-.17-.83-.39-1.21-.64-.38-.25-.73-.54-1.06-.86-.32-.32-.61-.68-.87-1.06s-.47-.78-.65-1.21c-.18-.42-.31-.86-.4-1.31-.09-.45-.13-.9-.13-1.36v-21.81c0-.93-.17-1.81-.53-2.67-.4-.96-.94-1.84-1.61-2.64s-1.45-1.48-2.33-2.03-1.83-.97-2.83-1.24c-1.01-.27-2.03-.38-3.08-.33-1.04.05-2.05.25-3.03.61s-1.88.86-2.71,1.5c-.83.64-1.54,1.39-2.13,2.24-.6.86-1.05,1.78-1.36,2.78-.21.66-.31,1.33-.3,2.03v21.15c0,.46-.04.91-.13,1.35-.09.45-.22.88-.39,1.3s-.39.82-.64,1.2c-.25.38-.54.73-.86,1.05-.32.32-.67.61-1.05.87-.38.25-.78.47-1.19.65s-.85.31-1.3.4c-.45.09-.9.14-1.35.14l-16.85.08c-.46,0-.91-.04-1.36-.13s-.89-.22-1.31-.39-.83-.39-1.21-.64c-.38-.25-.74-.54-1.06-.87-.33-.32-.62-.68-.87-1.06-.26-.38-.47-.79-.65-1.21-.18-.42-.31-.86-.4-1.31-.09-.45-.13-.91-.13-1.37Z"/>
      <path class="cls-1" d="M115.95,53.75l-18.58-18.79V10.95c0-.32-.03-.64-.1-.95s-.16-.62-.28-.92c-.12-.3-.27-.58-.45-.85-.18-.27-.38-.51-.61-.74-.23-.23-.47-.43-.74-.61-.27-.18-.55-.33-.84-.45s-.6-.22-.92-.28c-.31-.06-.63-.09-.95-.09h-3.22c-.32,0-.64.03-.95.09s-.62.16-.92.28c-.3.12-.58.27-.85.45-.27.18-.51.38-.74.61-.23.23-.43.47-.61.74-.18.27-.33.55-.45.85s-.22.6-.28.92c-.06.32-.09.63-.09.96v10.87L64.74,2c-.3-.3-.63-.58-.98-.82s-.73-.44-1.12-.61c-.39-.17-.8-.29-1.22-.37-.42-.08-.84-.13-1.27-.13-.43,0-.85.04-1.27.12-.42.08-.83.21-1.22.37-.4.16-.77.37-1.13.6-.36.24-.68.51-.99.81L4.06,53.74c-4.07,4.09-1.17,11.07,4.6,11.07.86,0,1.68-.17,2.48-.49.79-.33,1.49-.8,2.1-1.4L55.45,20.71c.3-.3.63-.57.98-.81.35-.24.73-.44,1.12-.6.39-.16.8-.29,1.21-.37.42-.08.84-.12,1.26-.12s.85.04,1.26.12.82.21,1.21.37c.39.16.77.36,1.12.6.35.24.68.5.98.81,14.05,14.07,28.1,28.14,42.15,42.2.61.61,1.31,1.08,2.1,1.41s1.62.49,2.48.49h.02c5.75,0,8.65-6.97,4.59-11.06Z"/>
    </g>
  </g>
</svg>