<?xml version="1.0" encoding="UTF-8"?>
<svg id="Capa_2" data-name="Capa 2" xmlns="http://www.w3.org/2000/svg" xmlns:xlink="http://www.w3.org/1999/xlink" viewBox="0 0 120.75 111">
  <defs>
    <style>
      .cls-1 {
        fill: #000;
      }

      .cls-1, .cls-2 {
        stroke-width: 0px;
      }

      .cls-2 {
        fill: none;
      }

      .cls-3 {
        clip-path: url(#clippath);
      }
    </style>
    <clipPath id="clippath">
      <rect class="cls-2" y="0" width="120.75" height="111"/>
    </clipPath>
  </defs>
  <g id="Capa_1-2" data-name="Capa 1">
    <g class="cls-3">
      <path class="cls-1" d="M88.73,85.68c-1.16.43-2.33.71-3.51.88.93-1.87,2.12-4.96,1.86-8.35-.27-3.44-1.95-6.35-3.17-8.04,8.68-2.74,18.13,1.99,18.13,1.99,0,0-4.44,10.27-13.31,13.52ZM69.9,83.93s3.75-8.71,11.28-12.63c-.83,1.88-1.67,4.58-1.45,7.47.26,3.4,1.92,6.29,3.14,7.98-6.88.23-12.97-2.83-12.97-2.83ZM62.87,95.12c-.64.8-1.57,1.19-2.5,1.19-.46,0-.93-.1-1.35-.3-.42-.19-.82-.49-1.15-.89-.72-.89-.1-2.22,1.05-2.22h2.89c.81,0,1.35.66,1.35,1.37,0,.29-.1.59-.3.85ZM37.73,86.75c1.21-1.7,2.89-4.59,3.17-8,.25-2.92-.59-5.62-1.42-7.5,7.58,3.89,11.36,12.67,11.36,12.67,0,0-6.16,3.09-13.1,2.83ZM32.02,85.68c-8.87-3.25-13.3-13.51-13.3-13.51,0,0,9.41-4.72,18.07-2-1.23,1.69-2.93,4.61-3.22,8.06-.27,3.37.87,6.46,1.8,8.31-1.12-.19-2.25-.47-3.36-.86ZM111.81,66.94C118.55,43.21,120.72,18.62,118.51.01c-13.21,14.21-27.27,23.96-40.62,29.59-5.49-2.14-11.37-3.36-17.51-3.36s-12.03,1.22-17.51,3.36C29.51,23.97,15.45,14.22,2.24,0c-2.21,18.61-.04,43.21,6.7,66.92-.93,3.46-1.42,6.91-1.42,10.29,0,23.41,23.66,33.79,52.86,33.79s52.85-10.38,52.85-33.78c0-3.37-.49-6.84-1.42-10.29Z"/>
    </g>
  </g>
</svg>